<?xml version="1.0" encoding="utf-8"?>
<!-- Generator: Adobe Illustrator 16.0.0, SVG Export Plug-In . SVG Version: 6.00 Build 0)  -->
<!DOCTYPE svg PUBLIC "-//W3C//DTD SVG 1.1//EN" "http://www.w3.org/Graphics/SVG/1.1/DTD/svg11.dtd">
<svg version="1.1" id="Layer_1" xmlns="http://www.w3.org/2000/svg" xmlns:xlink="http://www.w3.org/1999/xlink" x="0px" y="0px"
	 width="151.2px" height="64.8px" viewBox="36 14.4 151.2 64.8" enable-background="new 36 14.4 151.2 64.8" xml:space="preserve">
<g>
	<path fill="#5AC6D0" d="M53.086,25.485c-0.524,0-1.048-0.196-1.474-0.688c0.884-0.524,1.474-1.736,1.474-2.817
		c0-1.146-0.655-2.193-2.391-2.193c-1.801,0-3.046,1.047-3.046,2.849c0,5.141,7.369,5.436,7.369,12.739
		c0,4.618-3.405,7.598-8.68,7.598c-2.62,0-7.236-0.557-7.236-5.273c0-3.078,2.292-4.715,4.814-4.715
		c1.474,0,2.391,0.491,2.652,1.671c-2.652,0.229-3.83,1.342-3.83,3.603c0,2.194,1.702,3.143,3.241,3.143
		c2.587,0,3.603-2.26,3.603-4.684c0-6.156-7.073-7.5-7.073-12.379c0-3.438,3.897-6.092,7.794-6.092c1.734,0,5.501,0.264,5.501,3.931
		C55.804,24.044,54.789,25.485,53.086,25.485z"/>
	<path fill="#5AC6D0" d="M64.984,21.26c0,0-0.492,2.226-1.114,5.175h1.965l-0.263,1.309h-1.965
		c-2.261,10.349-2.227,10.677-2.227,10.84c0,0.753,0.328,1.245,1.638,1.245c1.31,0,3.013-1.834,4.322-2.883h1.114
		c-1.506,1.507-5.207,5.862-7.763,5.862c-2.521,0-4.061-1.113-4.061-3.568c0-1.737,1.705-8.679,2.261-11.497h-1.08l0.261-1.309
		h1.081l0.982-4.521L64.984,21.26z"/>
	<path fill="#5AC6D0" d="M81.789,26.434l-2.357,11.135c-0.065,0.36-0.133,0.721-0.133,1.014c0,0.722,0.329,1.246,1.64,1.246
		c1.309,0,3.011-1.834,4.322-2.883h1.112c-1.506,1.507-5.208,5.862-7.76,5.862c-2.228,0-3.735-0.85-4.03-2.75
		c-1.539,1.441-3.306,2.75-4.715,2.75c-2.521,0-4.094-1.112-4.094-3.568c0-0.492,0.065-1.048,0.198-1.671l2.357-11.134h4.716
		l-2.358,11.135c-0.065,0.36-0.13,0.721-0.13,1.014c0,0.722,0.327,1.246,1.638,1.246c0.687,0,1.506-0.524,2.325-1.179
		c0.033-0.327,0.098-0.688,0.197-1.082l2.357-11.134L81.789,26.434L81.789,26.434z"/>
	<path fill="#5AC6D0" d="M104.297,37.569c-0.1,0.393-0.165,0.819-0.165,1.212c0,0.753,0.295,1.342,1.343,1.342
		c1.31,0,2.684-1.932,3.438-3.342h1.541c-1.507,1.77-4.457,6.026-7.008,6.026c-2.556,0-4.062-1.112-4.062-3.568
		c0-0.524,0.066-1.048,0.195-1.671l1.244-5.894c0.067-0.296,0.098-0.59,0.098-0.853c0-1.179-0.62-1.931-1.505-1.931
		c-0.721,0-1.277,0.195-1.9,0.589c0.098,0.393,0.163,0.752,0.163,1.146c0,0.229-0.032,0.458-0.065,0.688l-2.422,11.493h-4.75
		l2.359-11.133c0.065-0.296,0.097-0.59,0.097-0.853c0-1.179-0.621-1.931-1.506-1.931c-0.786,0-1.343,0.229-1.998,0.688
		l-2.816,13.229h-4.715l3.471-16.374h4.716l-0.36,1.735c1.312-0.95,2.818-1.735,4.226-1.735c1.212,0,2.521,0.885,3.243,2.162
		c1.44-1.147,3.176-2.162,4.78-2.162c1.802,0,3.766,1.898,3.766,4.126c0,0.261-0.032,0.491-0.065,0.754L104.297,37.569z"/>
	<path fill="#5AC6D0" d="M114.428,26.434l-0.129,0.621c0.686-0.36,1.472-0.589,2.291-0.589c3.405,0,5.013,1.212,5.013,4.585
		c0,0.688-0.065,1.441-0.198,2.292c-1.014,7.041-3.832,9.431-7.172,9.431c-1.079,0-2.097-0.36-3.078-0.981l-1.704,8.022l-4.945,1.18
		l5.207-24.562H114.428z M117.212,33.738c0.295-1.441,0.428-2.521,0.428-3.308c0-1.963-0.788-2.357-1.836-2.357
		c-0.623,0-1.243,0.26-1.868,0.688l-2.356,11.004c0.786,0.589,1.606,0.589,2.129,0.589
		C115.346,40.354,116.131,38.945,117.212,33.738z"/>
	<path fill="#5AC6D0" d="M130.943,21.26c0,0-0.491,2.226-1.113,5.175h1.966l-0.265,1.309h-1.964
		c-2.26,10.349-2.228,10.677-2.228,10.84c0,0.753,0.329,1.245,1.638,1.245c1.311,0,3.014-1.834,4.322-2.883h1.113
		c-1.506,1.507-5.207,5.862-7.761,5.862c-2.521,0-4.062-1.113-4.062-3.568c0-1.737,1.705-8.679,2.26-11.497h-1.081l0.263-1.309
		h1.081l0.981-4.521L130.943,21.26z"/>
	<path fill="#5AC6D0" d="M144.113,30.921c0.197,0.197,0.492,0.295,0.949,0.295c1.541,0,2.229-1.113,3.439-1.605l0.131,0.688
		c-1.016,1.277-2.718,2.359-4.617,2.884c-0.622,6.583-4.192,9.822-7.468,9.822c-3.503,0-5.01-1.473-5.01-5.371
		c0-8.056,4.094-11.528,8.613-11.528C143.26,26.107,144.048,28.531,144.113,30.921z M141.591,33.509
		c-0.951,0-1.376-0.688-1.376-1.473c0-0.95,0.559-1.966,1.441-2.293c-0.099-1.082-0.459-1.704-1.376-1.704
		c-3.078,0-4.387,6.681-4.387,9.302c0,1.965,0.917,2.489,2.194,2.489C140.085,39.829,141.199,36.685,141.591,33.509z"/>
	<path fill="#5AC6D0" d="M167.505,28.726c0,5.109-2.588,14.082-9.203,14.082c-2.226,0-3.668-0.85-3.995-2.717
		c-1.54,1.409-3.308,2.717-4.685,2.717c-2.52,0-4.093-1.112-4.093-3.568c0-0.492,0.065-1.048,0.198-1.671l2.355-11.134h4.716
		l-2.357,11.134c-0.064,0.36-0.13,0.721-0.13,1.015c0,0.722,0.325,1.246,1.639,1.246c0.686,0,1.505-0.492,2.291-1.147
		c0-0.326,0.065-0.72,0.164-1.113l2.355-11.134h4.719l-2.357,11.134c-0.1,0.459-0.166,0.853-0.166,1.212
		c0,0.623,0.297,1.047,1.248,1.047c3.208,0,5.402-7.171,5.402-10.743c-0.197,0.066-0.49,0.132-0.688,0.132
		c-0.951,0-1.376-0.917-1.376-1.834c0-0.689,0.784-1.604,1.867-1.604C166.816,25.78,167.505,27.024,167.505,28.726z"/>
	<path fill="#5AC6D0" d="M179.7,42.808c-2.13,0-3.343-1.112-3.343-3.568c0-0.524,0.068-1.048,0.199-1.671l1.242-5.894
		c0.066-0.296,0.101-0.59,0.101-0.853c0-1.179-0.625-1.931-1.511-1.931c-0.783,0-1.375,0.229-2.06,0.688l-2.784,13.229h-4.718
		l3.473-16.374h4.713l-0.388,1.768c1.341-0.983,2.848-1.768,4.287-1.768c1.803,0,3.766,1.898,3.766,4.126
		c0,0.261-0.032,0.491-0.064,0.754c-0.166,1.08-1.574,6.843-1.574,7.564c0,0.557,0.262,1.016,1.213,1.016
		c0.229,0,0.592,0,0.851-0.098C182.187,42.613,180.81,42.808,179.7,42.808z"/>
</g>
<g>
	<path fill="#45C6F4" d="M64.121,51.323c-0.524,0-1.048-0.195-1.473-0.687c0.884-0.523,1.473-1.735,1.473-2.817
		c0-1.145-0.654-2.193-2.39-2.193c-1.801,0-3.044,1.048-3.044,2.85c0,5.141,7.367,5.435,7.367,12.739
		c0,4.617-3.405,7.596-8.679,7.596c-2.62,0-7.237-0.553-7.237-5.271c0-3.078,2.292-4.715,4.814-4.715c1.473,0,2.39,0.492,2.652,1.67
		c-2.652,0.229-3.831,1.342-3.831,3.604c0,2.194,1.704,3.144,3.241,3.144c2.588,0,3.602-2.258,3.602-4.683
		c0-6.157-7.073-7.5-7.073-12.38c0-3.438,3.896-6.092,7.794-6.092c1.734,0,5.5,0.262,5.5,3.931
		C66.839,49.884,65.825,51.323,64.121,51.323z"/>
	<path fill="#45C6F4" d="M83.421,52.274L80.376,66.62c2.03-0.986,3.897-2.425,5.011-4.851l-0.13,2.589
		c-0.427,2.063-2.654,3.045-5.208,3.766l-0.654,3.146c-0.984,4.682-3.734,5.566-5.895,5.566c-1.999,0-3.866-1.406-3.866-3.535
		c0-3.015,2.522-3.996,5.634-4.913l0.458-2.227c-1.475,1.342-3.079,2.487-4.389,2.487c-2.521,0-4.094-1.113-4.094-3.57
		c0-0.491,0.065-1.047,0.197-1.669l2.357-11.136h4.717l-2.359,11.136c-0.065,0.359-0.131,0.72-0.131,1.016
		c0,0.72,0.328,1.241,1.637,1.241c0.722,0,1.605-0.553,2.458-1.275l2.587-12.117H83.421z M72.745,73.918
		c0.655,0,1.506-0.617,1.899-2.554l0.394-1.897c-2.063,0.688-3.603,1.604-3.603,3.375C71.435,73.301,72.023,73.918,72.745,73.918z"
		/>
	<path fill="#45C6F4" d="M97.677,63.409c-0.099,0.359-0.164,0.72-0.164,1.048c0,0.72,0.36,1.209,1.637,1.209
		c1.311,0,1.802-1.014,3.112-2.061h1.114c-1.507,1.508-3.996,5.043-6.551,5.043c-2.554,0-4.061-1.114-4.061-3.57
		c0-0.523,0.066-1.048,0.196-1.67l1.243-5.896c0.067-0.294,0.1-0.587,0.1-0.852c0-1.178-0.624-1.931-1.507-1.931
		c-0.787,0-1.376,0.229-2.062,0.688l-2.785,13.23h-4.715l3.471-16.375h4.716l-0.392,1.769c1.342-0.983,2.849-1.769,4.29-1.769
		c1.77,0,3.766,1.898,3.766,4.094c0,0.264,0,0.523-0.065,0.787L97.677,63.409z"/>
	<path fill="#45C6F4" d="M117.433,45.723l-3.731,17.686c-0.067,0.359-0.164,0.72-0.164,1.048c0,0.72,0.359,1.209,1.637,1.209
		c1.311,0,3.013-1.83,4.32-2.877h1.113c-1.504,1.505-5.207,5.859-7.76,5.859c-2.128,0-3.538-0.787-3.964-2.487
		c-0.982,1.342-2.455,2.685-4.452,2.685c-3.144,0-4.061-2.226-4.061-4.159c0-5.633,2.03-12.382,8.58-12.382
		c0.787,0,1.605,0.329,2.194,0.82l1.444-6.744L117.433,45.723z M104.792,63.801c0,1.965,1.08,2.326,1.898,2.326
		c0.754,0,1.474-0.721,2.096-1.639c0.034-0.327,0.098-0.688,0.197-1.079l1.833-8.679c-0.523-0.459-1.145-0.59-1.604-0.59
		C106.757,54.141,104.792,59.348,104.792,63.801z"/>
	<path fill="#45C6F4" d="M124.55,52.274l-2.359,11.136c-0.066,0.359-0.13,0.72-0.13,1.016c0,0.72,0.326,1.241,1.638,1.241
		c1.31,0,3.013-1.83,4.323-2.877h1.113c-1.507,1.505-5.209,5.859-7.764,5.859c-2.521,0-4.092-1.113-4.092-3.57
		c0-0.491,0.064-1.047,0.196-1.669l2.358-11.136H124.55z M123.042,45.331c1.441,0,2.621,1.18,2.621,2.621
		c0,1.441-1.18,2.588-2.621,2.588c-1.44,0-2.586-1.146-2.586-2.588C120.457,46.511,121.602,45.331,123.042,45.331z"/>
	<path fill="#45C6F4" d="M135.427,54.6c0-0.787-0.489-1.112-1.212-1.112c-2.75,0-4.517,5.337-4.517,8.873
		c0,1.934,0.391,3.504,2.39,3.504c2.325,0,4.191-1.375,5.699-3.075h1.113c-1.572,1.766-3.343,5.86-9.137,5.86
		c-2.72,0-4.488-1.506-4.488-5.371c0-4.782,2.063-11.103,8.418-11.103c1.768,0,3.601,0.459,3.601,2.26
		c0,0.361-0.031,0.655-0.163,1.08c-0.164-0.098-0.427-0.195-0.819-0.195c-0.294,0-0.623,0.064-1.047,0.195
		C135.363,55.156,135.427,54.861,135.427,54.6z"/>
	<path fill="#45C6F4" d="M152.725,52.274l-2.356,11.136c-0.065,0.359-0.131,0.72-0.131,1.016c0,0.72,0.326,1.241,1.637,1.241
		s3.012-1.83,4.322-2.877h1.113c-1.506,1.505-5.207,5.859-7.761,5.859c-2.13,0-3.57-0.787-3.996-2.487
		c-0.984,1.342-2.456,2.685-4.453,2.685c-3.145,0-4.062-2.226-4.062-4.159c0-5.633,2.031-12.382,8.58-12.382
		c0.787,0,1.605,0.329,2.193,0.82l0.197-0.852H152.725L152.725,52.274z M141.458,63.801c0,1.965,1.08,2.326,1.9,2.326
		c0.753,0,1.474-0.721,2.096-1.639c0.033-0.327,0.099-0.688,0.197-1.079l1.835-8.679c-0.524-0.459-1.147-0.59-1.605-0.59
		C143.424,54.141,141.458,59.348,141.458,63.801z"/>
	<path fill="#45C6F4" d="M162.46,47.099c0,0-0.492,2.226-1.115,5.175h1.967l-0.262,1.31h-1.969
		c-2.258,10.348-2.225,10.677-2.225,10.842c0,0.752,0.33,1.241,1.64,1.241c1.307,0,3.015-1.83,4.319-2.877h1.116
		c-1.505,1.505-5.206,5.859-7.761,5.859c-2.523,0-4.062-1.113-4.062-3.57c0-1.735,1.703-8.677,2.262-11.494h-1.082l0.262-1.311
		h1.082l0.982-4.519L162.46,47.099z"/>
	<path fill="#45C6F4" d="M162.859,63.441c0-4.155,1.766-11.46,7.73-11.46c2.68,0,4.191,1.113,4.191,3.402
		c0,3.996-4.293,6.289-7.403,6.683c-0.065,0.523-0.097,1.015-0.097,1.409c0,2.159,1.075,2.817,2.356,2.817
		c1.536,0,2.849-0.886,4.192-2.097c0,3.535-2.848,4.453-6.123,4.453C164.562,68.649,162.859,66.257,162.859,63.441z M171.671,53.716
		c-1.836,0-3.346,3.698-4.033,6.778c3.014-0.033,5.143-2.619,5.175-4.946C172.813,54.861,172.652,53.716,171.671,53.716z"/>
</g>
</svg>
